<?xml version="1.0" standalone="no"?>
<!DOCTYPE svg PUBLIC "-//W3C//DTD SVG 20010904//EN"
 "http://www.w3.org/TR/2001/REC-SVG-20010904/DTD/svg10.dtd">
<svg version="1.0" xmlns="http://www.w3.org/2000/svg"
 width="800.000000pt" height="800.000000pt" viewBox="0 0 800.000000 800.000000"
 preserveAspectRatio="xMidYMid meet">
<metadata>
Created by potrace 1.14, written by Peter Selinger 2001-2017
</metadata>
<g transform="translate(0.000000,800.000000) scale(0.100000,-0.100000)"
fill="#000000" stroke="none">
<path d="M3128 7385 c-2 -2 -32 -6 -68 -10 -36 -3 -77 -8 -91 -11 -15 -2 -47
-6 -70 -9 -24 -3 -66 -10 -94 -15 -27 -5 -64 -12 -82 -15 -95 -15 -430 -113
-498 -145 -11 -5 -45 -19 -75 -31 -156 -59 -401 -192 -586 -316 -272 -184
-557 -457 -757 -728 -37 -49 -71 -95 -77 -102 -5 -7 -10 -15 -10 -18 0 -3 -15
-27 -33 -53 -221 -318 -426 -859 -483 -1271 -3 -25 -8 -57 -10 -71 -26 -158
-25 -756 0 -799 2 -3 7 -26 10 -51 3 -25 8 -54 10 -65 2 -11 7 -40 11 -65 10
-66 62 -278 79 -328 8 -23 15 -43 15 -45 0 -3 7 -25 36 -112 55 -163 157 -383
250 -540 25 -42 45 -78 45 -80 0 -2 -33 -21 -73 -43 -226 -124 -408 -359 -478
-617 -24 -89 -34 -303 -19 -390 5 -27 11 -64 14 -82 10 -54 56 -175 94 -243
143 -264 397 -448 696 -505 114 -22 319 -13 436 19 194 54 388 180 503 327 31
41 62 79 67 86 13 16 83 159 100 203 17 45 17 45 32 33 17 -12 162 -73 258
-108 205 -74 421 -128 620 -156 41 -5 86 -12 99 -14 139 -24 650 -24 741 0 8
2 38 6 65 10 430 53 1011 273 1370 519 156 106 267 199 391 325 l73 73 15 -37
c9 -21 16 -41 16 -44 0 -4 20 -44 44 -89 121 -225 302 -401 522 -510 249 -123
491 -153 779 -97 140 28 330 116 460 215 64 48 210 207 258 280 140 215 199
424 192 675 -4 158 -8 187 -41 302 -73 251 -215 452 -449 631 -61 47 -279 155
-333 165 -9 2 -35 9 -57 15 -108 30 -315 44 -425 28 -25 -4 -63 -9 -85 -12
-22 -3 -42 -7 -46 -9 -3 -2 5 46 17 108 47 227 59 360 58 627 0 277 -14 421
-60 635 -8 39 -17 79 -19 90 -2 11 -13 56 -25 99 -157 579 -451 1079 -875
1486 -267 257 -561 455 -904 610 -114 52 -388 152 -448 165 -10 2 -65 15 -123
29 -113 27 -189 42 -260 51 -25 3 -58 8 -74 11 -73 12 -159 16 -393 19 -138 2
-253 2 -255 0z"/>
</g>
</svg>
